<svg xmlns="http://www.w3.org/2000/svg" width="3991" height="413" viewBox="0 0 3991 413" fill="none"><path d="M410.344 412.487H0V326.494H375.66V251.321H77.3791C25.8 248.574 0 231.035 0 198.681V49.0199C0 18.7466 25.7584 2.41355 77.2959 0H476.467V88.0528H99.2675V164.267H409.783C451.187 164.267 473.409 178.686 476.467 207.523V362.011C473.409 395.655 451.375 412.487 410.365 412.487H410.344Z" fill="#4A28C3"></path><path d="M581.31 412.489V0.521484H1014V84.9748H686.695V158.609H878.592V248.222H687.194V321.856H1012.98V412.489H581.31Z" fill="#4A28C3"></path><path d="M1481.79 88.0743H1204.88V326.495H1481.79V239.483H1582.08V352.253C1585.14 377.325 1572.78 394.823 1545 404.769C1533.14 409.242 1518.93 411.801 1502.33 412.488C1458.99 412.821 1346.38 412.821 1164.53 412.488C1127.96 412.488 1108.31 392.556 1105.61 352.69C1106.3 302.505 1106.3 201.282 1105.61 48.9998C1105.61 18.7472 1131.39 2.43503 1182.99 0.0214844H1503.68C1552.2 0.0214844 1578.33 16.3337 1582.08 48.9374V162.749H1481.79V88.0743Z" fill="#4A28C3"></path><path d="M1792.83 0.0214844V321.855H2118.61V412.488H1686.96V0.0214844H1792.85H1792.83Z" fill="#4A28C3"></path><path d="M2663.76 354.23C2663.76 390.329 2639.15 409.742 2589.96 412.488C2546.52 412.821 2431.81 412.821 2245.84 412.488C2209.2 412.488 2189.5 392.556 2186.8 352.69C2187.48 302.505 2187.48 201.282 2186.8 48.9998C2186.8 18.7472 2212.62 2.43503 2264.26 0.0214844H2590.38C2635.9 0.0214844 2660.35 15.6471 2663.76 46.94V354.23ZM2562.98 325.476V88.0743H2286.06V325.476H2562.98Z" fill="#4A28C3"></path><path d="M2964.44 250.281H2857.53V412.488H2751.65V0.0214844H3184.88C3211.66 0.0214844 3226.08 18.6016 3228.12 55.7411V206.421C3228.12 233.594 3213.43 248.221 3184.09 250.281H3108.83L3271.73 412.488H3127.33L2964.44 250.281ZM2857.53 151.929H3112.06C3122.23 151.929 3127.33 143.815 3127.33 127.544V110.42C3127.33 94.1706 3122.23 86.0352 3112.06 86.0352H2857.53V151.95V151.929Z" fill="#4A28C3"></path><path d="M3341.18 412.489V0.521484H3773.87V84.9748H3446.56V158.609H3638.46V248.222H3447.06V321.856H3772.85V412.489H3341.18Z" fill="#4A28C3"></path><path d="M3894.36 9.58979H3867.21V84.9714H3856.12V9.58979H3829.01V0.476562H3894.36V9.58979Z" fill="#4A28C3"></path><path d="M3920.68 0.476562L3948.31 69.429L3975.94 0.476562H3990.4V84.9714H3979.25V52.0556L3980.29 16.5391L3952.56 84.9714H3944.02L3916.35 16.7264L3917.45 52.0765V84.9923H3906.3V0.497326H3920.7L3920.68 0.476562Z" fill="#4A28C3"></path></svg>